<?xml version="1.0" encoding="UTF-8"?>
<svg version="1.1" xmlns="http://www.w3.org/2000/svg" width="512" height="512">
<path d="M0 0 C1.4540625 1.04414062 1.4540625 1.04414062 2.9375 2.109375 C8.37839868 6.10503496 13.64505349 10.28452438 18.8125 14.625 C19.58484985 15.27142456 19.58484985 15.27142456 20.37280273 15.9309082 C24.46179707 19.41242479 28.24490806 23.16326045 32 27 C32.06731323 25.84383179 32.06731323 25.84383179 32.13598633 24.66430664 C32.34894003 21.12948742 32.58057744 17.59612333 32.8125 14.0625 C32.91788086 12.24395508 32.91788086 12.24395508 33.02539062 10.38867188 C33.65119148 1.15185121 34.57714566 -7.47990705 41.1328125 -14.4921875 C45.67113957 -18.15702903 50.90623783 -19.74730457 56.625 -20.4375 C62.88929989 -19.62546113 68.58067062 -17.65821205 73 -13 C81.41563732 -1.166963 77.87407098 15.14618787 76.9765625 28.89453125 C76.86906604 30.57930838 76.76175984 32.26409767 76.65463257 33.94889832 C76.4307085 37.45271079 76.20332738 40.95627808 75.97363281 44.4597168 C75.68109815 48.92850286 75.39916796 53.39788831 75.12001991 57.86752796 C74.9018773 61.33642338 74.67719073 64.80487248 74.45066452 68.2732296 C74.34400895 69.92076149 74.23955455 71.56843754 74.13743973 73.2162571 C72.61524791 97.6433247 72.61524791 97.6433247 66 104 C57.21269091 110.88978255 46.3772031 109.70976153 35.8359375 109.62890625 C33.87399158 109.62973615 31.91204574 109.63220009 29.95010376 109.63621521 C25.85323982 109.63906297 21.75692569 109.62446947 17.66015625 109.59692383 C12.42359564 109.56279781 7.18801438 109.56888415 1.95140648 109.5875864 C-2.09453418 109.59818041 -6.14024899 109.5891975 -10.18616867 109.57420158 C-12.11656396 109.56903999 -14.04698302 109.56947686 -15.97737503 109.57574654 C-18.67895091 109.58122971 -21.37914792 109.56072691 -24.08056641 109.53344727 C-25.26218102 109.54323608 -25.26218102 109.54323608 -26.46766663 109.55322266 C-32.92521556 109.44298895 -38.10673187 107.49670049 -43.0234375 103.25390625 C-43.46945312 102.69574219 -43.91546875 102.13757813 -44.375 101.5625 C-44.83648437 101.00691406 -45.29796875 100.45132813 -45.7734375 99.87890625 C-49.47546013 94.2079735 -49.84719256 88.59221707 -49 82 C-46.74272262 74.87546829 -43.43583309 70.69464492 -37 67 C-34.31672606 66.10557535 -32.65850261 65.85418313 -29.89575195 65.79467773 C-29.07512772 65.77473251 -28.25450348 65.75478729 -27.40901184 65.73423767 C-26.52767075 65.71752518 -25.64632965 65.70081268 -24.73828125 65.68359375 C-23.83248825 65.66281265 -22.92669525 65.64203156 -21.99345398 65.62062073 C-19.09987984 65.55523442 -16.20621493 65.49629096 -13.3125 65.4375 C-11.35090207 65.3943044 -9.38931332 65.35068977 -7.42773438 65.30664062 C-2.61858261 65.19956418 2.19066046 65.09826586 7 65 C-30.10487199 26.27486907 -76.98642161 5.72801337 -130.4375 2.8125 C-181.68631121 1.74481643 -229.91125888 22.34901651 -267 57 C-267.81339844 57.75925781 -268.62679687 58.51851563 -269.46484375 59.30078125 C-303.71638764 92.36190814 -323.13408596 139.99630381 -324.57128906 187.21728516 C-324.94117185 197.12121557 -326.46904019 204.66603844 -333.875 211.75 C-339.21638458 215.5957969 -344.45213557 216.91392454 -351 216 C-358.05198292 214.17696417 -363.13475753 211.28101901 -367 205 C-369.4333018 199.66083397 -369.34479827 194.97212019 -369.3125 189.1875 C-369.30686035 188.126521 -369.3012207 187.06554199 -369.29541016 185.97241211 C-368.52057717 133.9933936 -348.21017635 81.15235942 -314 42 C-313.34386719 41.23429687 -312.68773437 40.46859375 -312.01171875 39.6796875 C-300.80127157 26.88584383 -288.77989732 14.99567581 -275 5 C-274.46310547 4.6076416 -273.92621094 4.2152832 -273.37304688 3.81103516 C-252.18674789 -11.5638337 -228.98896765 -23.21278883 -204 -31 C-203.26539551 -31.23412598 -202.53079102 -31.46825195 -201.77392578 -31.70947266 C-135.44668281 -52.58834227 -56.54424179 -40.80181083 0 0 Z " fill="#28B3FF" transform="translate(390,62)"/>
<path d="M0 0 C4.45651419 3.86964812 7.58761326 8.41168549 8.2746582 14.38989258 C8.30394886 17.19823677 8.32818145 20.0039528 8.3125 22.8125 C8.30686035 23.873479 8.3012207 24.93445801 8.29541016 26.02758789 C7.35582876 89.05861488 -21.84710647 147.1632818 -66.421875 190.60546875 C-71.05949756 195.04680918 -75.87572746 199.12876708 -81 203 C-81.62148926 203.47614746 -82.24297852 203.95229492 -82.88330078 204.44287109 C-115.11172563 229.0098768 -152.00978253 244.5286731 -192 251 C-192.7537793 251.12987305 -193.50755859 251.25974609 -194.28417969 251.39355469 C-251.02088991 260.88957229 -314.21829931 244.83131264 -360.9375 211.9375 C-372.28010803 203.79184327 -383.11569896 194.88430104 -393 185 C-393.04487549 185.77077881 -393.08975098 186.54155762 -393.13598633 187.33569336 C-393.34894003 190.87051258 -393.58057744 194.40387667 -393.8125 197.9375 C-393.88275391 199.14986328 -393.95300781 200.36222656 -394.02539062 201.61132812 C-394.704971 211.64193442 -395.9032515 219.84479378 -402.9765625 227.3359375 C-407.30238495 230.89346716 -412.00173986 231.74567598 -417.4375 232.4375 C-425.0526501 231.50230613 -430.95837984 228.96966194 -435.84375 222.9765625 C-442.31574828 211.91294382 -438.78637569 195.28779414 -438.01171875 182.921875 C-437.90676596 181.21706373 -437.80185239 179.51225004 -437.69697571 177.80743408 C-437.47747832 174.26073018 -437.25410933 170.71429288 -437.02856445 167.16796875 C-436.74188798 162.64786632 -436.47026622 158.12699094 -436.2021513 153.60575485 C-435.99134679 150.09458955 -435.76987629 146.58415405 -435.54554176 143.07382965 C-435.44082199 141.40768503 -435.33994258 139.74129396 -435.24316978 138.07466888 C-433.84247875 114.14068605 -433.84247875 114.14068605 -427 108 C-417.97784874 101.245055 -407.53680349 102.28901428 -396.8359375 102.37109375 C-394.87399158 102.37026385 -392.91204574 102.36779991 -390.95010376 102.36378479 C-386.85323982 102.36093703 -382.75692569 102.37553053 -378.66015625 102.40307617 C-373.42359564 102.43720219 -368.18801438 102.43111585 -362.95140648 102.4124136 C-358.90546582 102.40181959 -354.85975101 102.4108025 -350.81383133 102.42579842 C-348.88343604 102.43096001 -346.95301698 102.43052314 -345.02262497 102.42425346 C-342.32104909 102.41877029 -339.62085208 102.43927309 -336.91943359 102.46655273 C-336.13169052 102.46002686 -335.34394745 102.45350098 -334.53233337 102.44677734 C-328.07478444 102.55701105 -322.89326813 104.50329951 -317.9765625 108.74609375 C-317.53054688 109.30425781 -317.08453125 109.86242187 -316.625 110.4375 C-315.93277344 111.27087891 -315.93277344 111.27087891 -315.2265625 112.12109375 C-311.52453987 117.7920265 -311.15280744 123.40778293 -312 130 C-314.25727738 137.12453171 -317.56416691 141.30535508 -324 145 C-326.68327394 145.89442465 -328.34149739 146.14581687 -331.10424805 146.20532227 C-331.92487228 146.22526749 -332.74549652 146.24521271 -333.59098816 146.26576233 C-334.9129998 146.29083107 -334.9129998 146.29083107 -336.26171875 146.31640625 C-337.16751175 146.33718735 -338.07330475 146.35796844 -339.00654602 146.37937927 C-341.90012016 146.44476558 -344.79378507 146.50370904 -347.6875 146.5625 C-349.64909793 146.6056956 -351.61068668 146.64931023 -353.57226562 146.69335938 C-358.38141739 146.80043582 -363.19066046 146.90173414 -368 147 C-354.43544894 161.15360135 -340.12096586 173.31945388 -323 183 C-322.07380859 183.53270508 -322.07380859 183.53270508 -321.12890625 184.07617188 C-294.20721875 199.45618543 -263.95436317 207.77559997 -233 209 C-232.09121094 209.04125 -231.18242187 209.0825 -230.24609375 209.125 C-178.7000558 210.29816729 -129.91055107 189.19257056 -93 154 C-92.22011719 153.27296875 -91.44023437 152.5459375 -90.63671875 151.796875 C-56.78121129 119.32445221 -37.83305291 71.21020273 -36.42871094 24.83325195 C-36.06054418 14.90861881 -34.54806977 7.35032761 -27.125 0.25 C-18.39383555 -6.0364384 -9.03709696 -5.16837318 0 0 Z " fill="#2096F3" transform="translate(483,238)"/>
</svg>
